<svg width="50" height="50" viewBox="0 0 50 50" fill="none" xmlns="http://www.w3.org/2000/svg">
<rect x="0.5" y="0.5" width="49" height="49" rx="24.5" fill="black"/>
<rect x="0.5" y="0.5" width="49" height="49" rx="24.5" stroke="#CF4E17"/>
<path d="M29.1567 37.3334C28.7461 37.7441 28.2141 37.9401 27.5607 37.9214C26.9261 37.9214 26.3847 37.6881 25.9367 37.2214C25.5074 36.6241 25.2181 36.0454 25.0687 35.4854C24.9007 34.9441 24.8634 34.4961 24.9567 34.1414C25.0501 33.7867 25.2461 33.6094 25.5447 33.6094C25.6381 33.6094 25.7781 33.6467 25.9647 33.7214C26.1327 33.7961 26.2914 33.8894 26.4407 34.0014C26.5901 34.1134 26.6647 34.2441 26.6647 34.3934C26.6647 34.6734 26.6927 34.9161 26.7487 35.1214C26.8047 35.3267 26.9541 35.4481 27.1967 35.4854C27.4021 35.5601 27.6074 35.5321 27.8127 35.4014C28.0367 35.2894 28.2514 35.0654 28.4567 34.7294C28.6434 34.4867 28.8487 34.1041 29.0727 33.5814C29.2967 33.0587 29.5207 32.5081 29.7447 31.9294C29.9687 31.3694 30.1461 30.9121 30.2767 30.5574C30.5007 29.7921 30.6781 29.0174 30.8087 28.2334C30.9394 27.4307 31.0981 26.5721 31.2847 25.6574C31.3594 25.1534 31.4434 24.7241 31.5367 24.3694C31.6487 23.9961 31.7047 23.7721 31.7047 23.6974C31.7047 23.6227 31.7141 23.4734 31.7327 23.2494C31.7514 23.0067 31.8074 22.7921 31.9007 22.6054C31.9007 22.3254 31.9381 22.0081 32.0127 21.6534C32.1061 21.2987 32.1527 21.0841 32.1527 21.0094C32.2087 20.9534 32.3207 20.9534 32.4887 21.0094C32.6754 21.0467 32.8621 21.1121 33.0487 21.2054C33.2541 21.2987 33.4034 21.3921 33.4967 21.4854C33.6461 21.6347 33.7767 21.8027 33.8887 21.9894C34.0007 22.1574 34.0754 22.4374 34.1127 22.8294C34.1687 23.2027 34.1501 23.7814 34.0567 24.5654C34.0567 24.6774 34.0287 24.9107 33.9727 25.2654C33.9167 25.6014 33.8421 25.9841 33.7487 26.4134C33.6554 26.8427 33.5621 27.2627 33.4687 27.6734C33.3754 28.0654 33.3007 28.3921 33.2447 28.6534C33.1701 28.9334 33.0861 29.2414 32.9927 29.5774C32.8994 29.9134 32.8434 30.1467 32.8247 30.2774C32.8061 30.3894 32.7407 30.6134 32.6287 30.9494C32.5167 31.2667 32.3954 31.5841 32.2647 31.9014C32.1527 32.2187 32.0874 32.4427 32.0687 32.5734C32.0501 32.6481 31.9941 32.8254 31.9007 33.1054C31.8261 33.3854 31.6581 33.8147 31.3967 34.3934C31.3034 34.6174 31.1074 34.9347 30.8087 35.3454C30.5101 35.7747 30.2021 36.1761 29.8847 36.5494C29.5674 36.9414 29.3247 37.2027 29.1567 37.3334ZM33.3007 18.1534C33.0954 17.9107 33.0301 17.5187 33.1047 16.9774C33.1981 16.4361 33.3941 15.9694 33.6927 15.5774C33.9354 15.2974 34.2621 15.1387 34.6727 15.1014C35.1021 15.0641 35.4381 15.1481 35.6807 15.3534C35.8861 15.6707 36.0167 15.9881 36.0727 16.3054C36.1287 16.6227 36.0541 16.9307 35.8487 17.2294C35.3821 17.7521 34.8967 18.0881 34.3927 18.2374C33.9074 18.3867 33.5434 18.3587 33.3007 18.1534Z" fill="white"/>
<path d="M14.4709 32.4051C14.1349 32.2185 13.9483 32.0132 13.9109 31.7892C13.8923 31.5652 14.0229 31.1731 14.3029 30.6131C14.5829 30.0531 15.0216 29.1851 15.6189 28.0091C16.0669 27.1691 16.3656 26.5158 16.5149 26.0491C16.6829 25.5638 16.7763 25.2185 16.7949 25.0131C16.8136 24.8078 16.8229 24.6771 16.8229 24.6211C16.7856 24.4531 16.8043 24.3225 16.8789 24.2291C16.9536 24.1171 17.0749 24.0238 17.2429 23.9491C17.3363 23.8558 17.5509 23.6878 17.8869 23.4451C18.2229 23.2025 18.4843 22.9131 18.6709 22.5771C18.8389 22.1851 19.0256 21.7838 19.2309 21.3731C19.4549 20.9625 19.7443 20.4491 20.0989 19.8331C20.4536 19.1985 20.9296 18.3771 21.5269 17.3691C21.9003 16.7158 22.3389 15.9785 22.8429 15.1571C23.3656 14.3358 23.8789 13.5891 24.3829 12.9171C24.5883 12.6558 24.8029 12.4505 25.0269 12.3011C25.2509 12.1518 25.4469 12.0771 25.6149 12.0771C26.0256 12.0771 26.4363 12.1891 26.8469 12.4131C27.2576 12.6185 27.6216 12.8798 27.9389 13.1971C28.2563 13.5145 28.4709 13.8131 28.5829 14.0931C28.6763 14.2425 28.7136 14.5598 28.6949 15.0451C28.6763 15.5305 28.6389 16.1185 28.5829 16.8091C28.5269 17.4998 28.4616 18.2371 28.3869 19.0211C28.3309 19.7865 28.2469 20.6918 28.1349 21.7371C28.0229 22.7825 27.9109 23.8745 27.7989 25.0131C27.7056 26.1518 27.6309 27.2532 27.5749 28.3172C27.5189 29.3625 27.5189 30.2771 27.5749 31.0611C27.5936 31.2291 27.5936 31.3878 27.5749 31.5371C27.5563 31.6865 27.5469 31.8078 27.5469 31.9011C27.4349 32.0131 27.1923 32.0598 26.8189 32.0411C26.4456 32.0411 26.0816 31.9851 25.7269 31.8731C25.3723 31.7611 25.1763 31.6211 25.1389 31.4531C25.0829 31.3971 25.0456 31.3505 25.0269 31.3131C25.0083 31.2758 25.0083 31.0985 25.0269 30.7811C25.0456 30.4451 25.0736 29.8385 25.1109 28.9611L25.2509 24.6771L24.8869 24.7051C24.7189 24.7051 24.4109 24.7238 23.9629 24.7611C23.5336 24.7985 23.0576 24.8545 22.5349 24.9291C22.0309 24.9851 21.5643 25.0505 21.1349 25.1251C20.7056 25.1811 20.4069 25.2371 20.2389 25.2931C20.0709 25.2931 19.8656 25.4051 19.6229 25.6291C19.3989 25.8531 19.1843 26.1425 18.9789 26.4971C18.9043 26.7585 18.7643 27.0385 18.5589 27.3371C18.3723 27.6171 18.2789 27.8038 18.2789 27.8971C18.1483 27.9905 18.0363 28.1025 17.9429 28.2332C17.8683 28.3638 17.8309 28.4291 17.8309 28.4291C17.8309 28.5411 17.7469 28.8211 17.5789 29.2691C17.4109 29.6985 17.2056 30.1838 16.9629 30.7251C16.7203 31.2478 16.4683 31.7051 16.2069 32.0971L15.4509 33.1611L14.4709 32.4051ZM21.1629 22.7731C21.1629 22.7731 21.2656 22.7545 21.4709 22.7171C21.6763 22.6798 21.9189 22.6425 22.1989 22.6051C22.4976 22.5491 22.7589 22.5211 22.9829 22.5211C23.4123 22.4091 23.7669 22.3251 24.0469 22.2691C24.3456 22.2131 24.5883 22.1851 24.7749 22.1851C24.9616 22.1665 25.1109 22.1851 25.2229 22.2411C25.2976 22.3345 25.3629 22.3905 25.4189 22.4091C25.4936 22.4278 25.5309 22.4371 25.5309 22.4371C25.5496 22.3998 25.5869 22.2038 25.6429 21.8491C25.6989 21.4945 25.7643 21.0558 25.8389 20.5331C25.9136 20.0105 25.9883 19.4691 26.0629 18.9091C26.1376 18.3305 26.2029 17.7985 26.2589 17.3131C26.3149 16.8091 26.3523 16.4171 26.3709 16.1371C26.3896 15.7825 26.3803 15.4651 26.3429 15.1851C26.3056 14.8865 26.2869 14.7371 26.2869 14.7371C26.1749 14.7371 25.9603 14.9425 25.6429 15.3531C25.3443 15.7451 24.9896 16.2771 24.5789 16.9491C24.1869 17.6025 23.7949 18.3118 23.4029 19.0771C23.2163 19.4318 23.0389 19.7118 22.8709 19.9171C22.7216 20.1225 22.6003 20.2251 22.5069 20.2251C22.4696 20.2625 22.3669 20.4118 22.1989 20.6731C22.0496 20.9158 21.8816 21.1958 21.6949 21.5131C21.5269 21.8118 21.3776 22.0918 21.2469 22.3531C21.1349 22.5958 21.1069 22.7358 21.1629 22.7731Z" fill="white"/>
</svg>
